<svg xmlns="http://www.w3.org/2000/svg" width="102.615" height="18.635" viewBox="0 0 102.615 18.635">
  <g id="LL" transform="translate(-142 -28)">
    <g id="Group_4" data-name="Group 4" transform="translate(142 28)">
      <g id="Group_3" data-name="Group 3" transform="translate(0)">
        <g id="Group_1" data-name="Group 1">
          <path id="Path_1" data-name="Path 1" d="M508.145,67.306l8.288-8.288h0a3.082,3.082,0,0,0-4.359,0l-6.109,6.109h0a2.989,2.989,0,0,0,0,4.226l.066.066,2.675,2.675,2.113-2.113Z" transform="translate(-505.091 -58.116)" fill="blue"/>
          <path id="Path_2" data-name="Path 2" d="M524.553,102.21l-8.288,8.288h0a3.082,3.082,0,0,0,4.359,0l6.109-6.109h0a2.989,2.989,0,0,0,0-4.227l-.066-.066-2.675-2.675-2.113,2.113Z" transform="translate(-514.941 -92.765)" fill="blue"/>
        </g>
        <g id="Group_2" data-name="Group 2" transform="translate(17.322 3.585)">
          <path id="Path_3" data-name="Path 3" d="M652.954,97.385a1.377,1.377,0,0,0,.171.8.759.759,0,0,0,.638.226,2.81,2.81,0,0,0,.506-.039,2.849,2.849,0,0,0,.521-.163l-.187,1.338a2.867,2.867,0,0,1-1.291.264,2,2,0,0,1-1.532-.529,2.391,2.391,0,0,1-.49-1.664v-9.24h1.664Z" transform="translate(-651.29 -88.378)"/>
          <path id="Path_4" data-name="Path 4" d="M695.561,117.68a4.812,4.812,0,0,1,0,5.942,4.311,4.311,0,0,1-5.693,0,4.812,4.812,0,0,1,0-5.942,4.311,4.311,0,0,1,5.693,0Zm-4.472.941a3.912,3.912,0,0,0,0,4.06,2.221,2.221,0,0,0,3.259-.008,3.84,3.84,0,0,0,0-4.045,2.221,2.221,0,0,0-3.259-.008Z" transform="translate(-684.392 -113.262)"/>
          <path id="Path_5" data-name="Path 5" d="M775.127,117.68a4.812,4.812,0,0,1,0,5.942,4.312,4.312,0,0,1-5.693,0,4.812,4.812,0,0,1,0-5.942,4.312,4.312,0,0,1,5.693,0Zm-4.472.941a3.913,3.913,0,0,0,0,4.06,2.221,2.221,0,0,0,3.259-.008,3.84,3.84,0,0,0,0-4.045,2.221,2.221,0,0,0-3.259-.008Z" transform="translate(-754.531 -113.262)"/>
          <path id="Path_6" data-name="Path 6" d="M854.984,96l-1.54,1.587v2.069H851.78V88.378h1.664v7.311l3.718-3.811h1.96l-2.971,3.049,3.158,4.729H857.38Z" transform="translate(-828.026 -88.378)"/>
          <path id="Path_7" data-name="Path 7" d="M923.009,124.292a2.873,2.873,0,0,1-1.377-1.229l1.12-.964a1.925,1.925,0,0,0,.918.98,3.3,3.3,0,0,0,1.493.311,2.438,2.438,0,0,0,1.229-.257.767.767,0,0,0,.436-.677.674.674,0,0,0-.4-.6,5.334,5.334,0,0,0-1.4-.428,5.915,5.915,0,0,1-2.427-.871,1.838,1.838,0,0,1-.7-1.54,2.027,2.027,0,0,1,.389-1.19,2.7,2.7,0,0,1,1.128-.887,4.216,4.216,0,0,1,1.75-.334,4.294,4.294,0,0,1,2.069.428,2.819,2.819,0,0,1,1.2,1.33l-1.182.871a2.061,2.061,0,0,0-.786-1,2.368,2.368,0,0,0-1.283-.319,2.147,2.147,0,0,0-1.159.288.8.8,0,0,0-.459.661.754.754,0,0,0,.412.669,4.942,4.942,0,0,0,1.5.451,5.412,5.412,0,0,1,2.334.84,1.839,1.839,0,0,1,.684,1.524,2.006,2.006,0,0,1-.9,1.7,4.174,4.174,0,0,1-2.489.653A5.106,5.106,0,0,1,923.009,124.292Z" transform="translate(-889.602 -113.262)"/>
          <path id="Path_8" data-name="Path 8" d="M997.873,97.385a1.378,1.378,0,0,0,.171.8.759.759,0,0,0,.638.226,2.81,2.81,0,0,0,.505-.039,2.853,2.853,0,0,0,.521-.163l-.187,1.338a2.868,2.868,0,0,1-1.291.264,2,2,0,0,1-1.532-.529,2.392,2.392,0,0,1-.49-1.664v-9.24h1.665Z" transform="translate(-955.343 -88.378)"/>
          <path id="Path_9" data-name="Path 9" d="M1035.5,91.225a.994.994,0,0,1-.3-.77.97.97,0,0,1,.3-.762,1.193,1.193,0,0,1,.824-.265,1.164,1.164,0,0,1,.817.265.984.984,0,0,1,.288.762,1.009,1.009,0,0,1-.288.77,1.142,1.142,0,0,1-.817.272A1.17,1.17,0,0,1,1035.5,91.225Zm1.649,9.357h-1.665V92.8h1.665Z" transform="translate(-989.718 -89.304)"/>
          <path id="Path_10" data-name="Path 10" d="M1076.745,96l-1.54,1.587v2.069h-1.665V88.378h1.665v7.311l3.718-3.811h1.96l-2.971,3.049,3.158,4.729h-1.929Z" transform="translate(-1023.513 -88.378)"/>
          <path id="Path_11" data-name="Path 11" d="M1150.865,121.274h-5.694a2.483,2.483,0,0,0,.731,1.563,2.18,2.18,0,0,0,1.524.537,2.651,2.651,0,0,0,1.268-.272,1.425,1.425,0,0,0,.692-.785l1.385.575a3.355,3.355,0,0,1-3.345,1.8,3.8,3.8,0,0,1-2.87-1.073,4.1,4.1,0,0,1-1.035-2.971,4.2,4.2,0,0,1,1-2.979,3.644,3.644,0,0,1,2.8-1.066,3.416,3.416,0,0,1,2.66,1.042,3.955,3.955,0,0,1,.949,2.769A5.638,5.638,0,0,1,1150.865,121.274Zm-5-2.816a2.542,2.542,0,0,0-.692,1.54h4.2a2.564,2.564,0,0,0-.661-1.524,1.87,1.87,0,0,0-1.392-.544A2.015,2.015,0,0,0,1145.864,118.458Z" transform="translate(-1085.204 -113.262)"/>
          <path id="Path_12" data-name="Path 12" d="M1222.757,166.147a1.074,1.074,0,0,1,.319.817,1.1,1.1,0,0,1-.319.824,1.162,1.162,0,0,1-.848.311,1.189,1.189,0,0,1-.856-.311,1.085,1.085,0,0,1-.327-.824,1.074,1.074,0,0,1,.319-.817,1.2,1.2,0,0,1,.863-.3A1.179,1.179,0,0,1,1222.757,166.147Z" transform="translate(-1153.261 -156.666)"/>
          <path id="Path_13" data-name="Path 13" d="M1266.164,117.673a4.4,4.4,0,0,1,.918,2.964,4.46,4.46,0,0,1-.918,2.979,3.13,3.13,0,0,1-2.52,1.081,3,3,0,0,1-1.5-.373,2.586,2.586,0,0,1-1.019-1.027v4.511h-1.665V116.763h1.462l.078,1.447a2.712,2.712,0,0,1,1.034-1.167,2.961,2.961,0,0,1,1.61-.436A3.152,3.152,0,0,1,1266.164,117.673Zm-1.315,4.962a3.094,3.094,0,0,0,.568-1.983,3.128,3.128,0,0,0-.568-1.991,1.9,1.9,0,0,0-1.579-.716,1.931,1.931,0,0,0-1.517.638,2.817,2.817,0,0,0-.63,1.774v.591a2.793,2.793,0,0,0,.63,1.758,1.93,1.93,0,0,0,1.517.638A1.911,1.911,0,0,0,1264.849,122.635Z" transform="translate(-1187.404 -113.262)"/>
          <path id="Path_14" data-name="Path 14" d="M1343.316,97.385a1.378,1.378,0,0,0,.171.8.759.759,0,0,0,.638.226,2.811,2.811,0,0,0,.505-.039,2.849,2.849,0,0,0,.521-.163l-.187,1.338a2.867,2.867,0,0,1-1.291.264,2,2,0,0,1-1.532-.529,2.391,2.391,0,0,1-.49-1.664v-9.24h1.665Z" transform="translate(-1259.858 -88.378)"/>
        </g>
      </g>
    </g>
  </g>
</svg>
